<svg width="62" height="62" viewBox="0 0 62 62"  xmlns="http://www.w3.org/2000/svg">
<path fill-rule="evenodd" clip-rule="evenodd" d="M39.3766 12.2384C39.3766 17.9759 44.0346 22.6272 49.7806 22.6272C50.4133 22.624 51.0444 22.5633 51.666 22.4457V43.0418C51.666 51.7067 46.5549 56.833 37.8773 56.833H18.9774C10.2772 56.833 5.16602 51.7067 5.16602 43.0418V24.1696C5.16602 15.5047 10.2772 10.333 18.9774 10.333H39.5583C39.4362 10.9608 39.3753 11.5989 39.3766 12.2384ZM33.9701 38.4825L41.3529 28.9557V28.9103C41.9849 28.061 41.8236 26.8635 40.9894 26.2111C40.5856 25.8994 40.0725 25.7644 39.5674 25.8371C39.0622 25.9098 38.6082 26.1838 38.3089 26.5967L32.0847 34.6037L24.9972 29.0237C24.5926 28.7085 24.0778 28.5693 23.5692 28.6376C23.0605 28.7059 22.6009 28.9759 22.294 29.3867L14.6614 39.2311C14.3931 39.5655 14.2487 39.9821 14.2525 40.4106C14.2082 41.2765 14.755 42.0631 15.583 42.3245C16.411 42.5859 17.3112 42.2561 17.7735 41.522L24.1567 33.2654L31.2442 38.8228C31.6473 39.1478 32.1654 39.2951 32.6795 39.2309C33.1936 39.1668 33.6595 38.8966 33.9701 38.4825Z" />
<ellipse opacity="0.4" cx="50.3744" cy="11.6248" rx="6.45834" ry="6.45833" />
</svg>
