<svg width="62" height="62" viewBox="0 0 62 62"  xmlns="http://www.w3.org/2000/svg">
<path opacity="0.4" d="M30.9779 48.1053L14.2076 56.4819C12.9411 57.1694 11.3613 56.7104 10.653 55.4492C10.4461 55.0526 10.3367 54.6119 10.334 54.164V35.4141C10.334 37.273 11.3821 38.4205 14.1392 39.7057L30.9779 48.1053Z" />
<path fill-rule="evenodd" clip-rule="evenodd" d="M22.9801 5.1665H38.9301C45.9253 5.1665 51.599 7.92047 51.6673 14.966V54.1642C51.6645 54.6048 51.555 55.0381 51.3483 55.4264C51.0162 56.0599 50.4427 56.5301 49.7594 56.7292C49.0762 56.9283 48.342 56.8391 47.7254 56.4821L30.9779 48.1054L14.1392 39.7058C11.3821 38.4207 10.334 37.2732 10.334 35.4142V14.966C10.334 7.92047 16.0076 5.1665 22.9801 5.1665ZM21.2484 24.8574H40.6846C41.8046 24.8574 42.7125 23.9429 42.7125 22.8148C42.7125 21.6868 41.8046 20.7723 40.6846 20.7723H21.2484C20.1284 20.7723 19.2204 21.6868 19.2204 22.8148C19.2204 23.9429 20.1284 24.8574 21.2484 24.8574Z" />
</svg>
