<svg width="40" height="40" viewBox="0 0 28 28" fill="none" xmlns="http://www.w3.org/2000/svg">
<path fill-rule="evenodd" clip-rule="evenodd" d="M23.6683 6.11671C24.1222 6.11671 24.5 6.49354 24.5 6.97304V7.41637C24.5 7.8842 24.1222 8.27269 23.6683 8.27269H4.33283C3.87784 8.27269 3.5 7.8842 3.5 7.41637V6.97304C3.5 6.49354 3.87784 6.11671 4.33283 6.11671H7.73449C8.42549 6.11671 9.02685 5.62555 9.1823 4.93256L9.36044 4.1369C9.63729 3.05308 10.5484 2.33325 11.5911 2.33325H16.4088C17.4402 2.33325 18.3616 3.05308 18.6282 4.07973L18.8188 4.93139C18.9731 5.62555 19.5745 6.11671 20.2666 6.11671H23.6683ZM21.9401 22.323C22.2953 19.0132 22.9171 11.1499 22.9171 11.0706C22.9398 10.8302 22.8615 10.6027 22.706 10.4196C22.5392 10.2481 22.3282 10.1466 22.0956 10.1466H5.91328C5.67954 10.1466 5.45715 10.2481 5.30284 10.4196C5.14626 10.6027 5.0691 10.8302 5.08045 11.0706C5.08253 11.0851 5.10484 11.3621 5.14214 11.8252C5.30785 13.8823 5.76936 19.6118 6.06759 22.323C6.27863 24.3203 7.58915 25.5756 9.48741 25.6211C10.9522 25.6549 12.4613 25.6666 14.0044 25.6666C15.4579 25.6666 16.9341 25.6549 18.4443 25.6211C20.4084 25.5873 21.7177 24.3541 21.9401 22.323Z" fill="#5928E5"/>
</svg>
