<svg width="62" height="62" viewBox="0 0 62 62"  xmlns="http://www.w3.org/2000/svg">
<path opacity="0.4" d="M43.6172 13.2132H36.0143C34.1202 13.2257 32.322 12.3832 31.1217 10.9209L28.618 7.45953C27.4379 5.98442 25.6397 5.13794 23.7485 5.16724H18.3736C8.72634 5.16724 5.16604 10.8292 5.16604 20.4568V30.8638C5.15404 32.0083 56.8214 32.0069 56.8247 30.8638V27.838C56.8707 18.2104 53.4023 13.2132 43.6172 13.2132Z" />
<path fill-rule="evenodd" clip-rule="evenodd" d="M53.8157 16.9036C54.6422 17.87 55.2809 18.9816 55.6992 20.1816C56.5222 22.6479 56.9032 25.2396 56.8247 27.8379V41.4082C56.8214 42.5513 56.737 43.6926 56.5721 44.8237C56.258 46.82 55.5557 48.7356 54.5048 50.4628C54.0218 51.2971 53.4352 52.0673 52.7591 52.7551C49.6983 55.5642 45.6338 57.0264 41.481 56.8124H20.4868C16.3273 57.0249 12.2563 55.5633 9.1857 52.7551C8.51764 52.0659 7.93888 51.2958 7.46298 50.4628C6.41829 48.7368 5.73096 46.8194 5.44165 44.8237C5.25769 43.6945 5.16552 42.5523 5.16602 41.4082V27.8379C5.16557 26.7045 5.22691 25.572 5.34978 24.4453C5.37561 24.2476 5.41436 24.0531 5.45272 23.8607C5.51665 23.5399 5.57947 23.2247 5.57947 22.9094C5.81264 21.5498 6.23799 20.23 6.8428 18.9896C8.63443 15.1615 12.3096 13.213 18.3276 13.213H43.5942C46.9649 12.9523 50.3105 13.9671 52.9658 16.0555C53.2716 16.3148 53.5559 16.5984 53.8157 16.9036ZM18.006 40.1475H44.0077H44.0536C44.6241 40.1723 45.1809 39.9681 45.5995 39.5804C46.0181 39.1928 46.2638 38.654 46.2817 38.0844C46.3139 37.5837 46.1491 37.0903 45.8223 36.709C45.4463 36.1967 44.8506 35.891 44.2144 35.8838H18.006C16.8263 35.8838 15.8699 36.8383 15.8699 38.0156C15.8699 39.193 16.8263 40.1475 18.006 40.1475Z" />
</svg>
