<svg width="201" height="200" viewBox="0 0 201 200" fill="none" xmlns="http://www.w3.org/2000/svg">
<path d="M140.44 104C144.395 105.976 147.5 108.71 158.924 120.273C198.238 160.065 198.025 159.81 199.709 169.1C200.365 172.716 200.303 174.45 199.376 178.448C197.922 184.718 195.712 188.447 190.779 192.955C184.628 198.577 181.167 199.944 172.961 199.994C161.201 200.065 161.128 200.013 131.802 170.654C118.122 156.958 106.206 144.612 105.322 143.219C102.651 139.005 101.308 133.936 101.308 128.072C101.308 123.528 101.664 121.849 103.387 118.249C106.342 112.076 111.522 106.904 117.878 103.78C122.974 101.275 122.977 101.275 129.535 101.456C134.845 101.602 136.337 101.95 140.44 104Z" fill="white"/>
<path d="M112.164 0.960565C119.831 2.23658 126.031 3.72538 130.259 5.30465C132.05 5.97414 134.167 6.71529 134.963 6.95196C138.216 7.9182 150.391 14.6847 155.177 18.1856C157.991 20.2455 163.014 24.5491 166.336 27.7489C187.061 47.712 197.582 71.3765 197.561 97.9831C197.554 106.597 195.858 120.104 194.308 123.878C192.673 127.862 192.599 127.8 159.87 95.2197C142.588 78.0164 127.272 63.069 125.835 62.0021C121.597 58.8595 112.881 54.886 107.822 53.7909C90.3353 50.0056 72.0651 57.3707 60.6664 72.8001C59.1349 74.8737 57.8814 77.0074 57.8814 77.5415C57.8814 78.0764 57.5991 78.8226 57.2538 79.2012C54.0844 82.6738 52.4227 101.472 54.5382 109.925C56.4005 117.366 60.2785 124.234 66.7866 131.616C70.0494 135.317 84.6675 150.425 99.271 165.191C118.646 184.78 125.627 192.273 125.096 192.913C122.906 195.552 102.277 197.849 90.255 196.793C65.4202 194.61 43.673 183.906 25.9876 165.159C13.3071 151.717 4.1839 133.25 1.00219 114.584C-0.763089 104.227 -0.117478 85.2541 2.31947 75.8971C7.19118 57.1898 15.7585 42.1838 29.0868 29.0111C44.003 14.2686 60.3675 5.51237 79.9564 1.79435C83.141 1.18927 86.398 0.556695 87.1941 0.387332C90.6321 -0.342955 106.522 0.0218315 112.164 0.960565Z" fill="white"/>
</svg>
