<svg width="62" height="62" viewBox="0 0 62 62"  xmlns="http://www.w3.org/2000/svg">
<path d="M23.622 53.687V45.7642C23.6219 43.7566 25.2545 42.1255 27.2766 42.1129H34.7016C36.7327 42.1129 38.3793 43.7476 38.3793 45.7642V45.7642V53.664C38.3793 55.4053 39.7944 56.8205 41.5482 56.8331H46.6139C48.9797 56.8392 51.2508 55.9104 52.9258 54.2517C54.6009 52.5929 55.5423 50.3406 55.5423 47.9918V25.4866C55.5423 23.5893 54.6952 21.7895 53.2292 20.5722L36.02 6.90836C33.0118 4.5184 28.7154 4.59561 25.7962 7.09208L8.9571 20.5722C7.4219 21.7536 6.50433 23.5587 6.45898 25.4866V47.9688C6.45898 52.8644 10.4564 56.8331 15.3874 56.8331H20.3374C21.1818 56.8392 21.9938 56.5104 22.5931 55.9198C23.1924 55.3291 23.5295 54.5254 23.5294 53.687H23.622Z" />
</svg>
