<svg width="40" height="40" viewBox="0 0 28 28" fill="none" xmlns="http://www.w3.org/2000/svg">
<path fill-rule="evenodd" clip-rule="evenodd" d="M9.44781 14.0001C9.44781 16.489 11.4852 18.514 14.0007 18.514C16.5047 18.514 18.5421 16.489 18.5421 14.0001C18.5421 11.4999 16.5047 9.47483 14.0007 9.47483C11.4852 9.47483 9.44781 11.4999 9.44781 14.0001ZM20.6933 7.05382C22.6852 8.5924 24.3811 10.8437 25.599 13.6607C25.6901 13.8756 25.6901 14.1245 25.599 14.3282C23.1633 19.9621 18.8267 23.3334 14.0007 23.3334H13.9893C9.17464 23.3334 4.83805 19.9621 2.40228 14.3282C2.31122 14.1245 2.31122 13.8756 2.40228 13.6607C4.83805 8.02675 9.17464 4.66675 13.9893 4.66675H14.0007C16.4137 4.66675 18.7015 5.50392 20.6933 7.05382ZM14.002 16.8146C15.5614 16.8146 16.8362 15.5475 16.8362 13.9976C16.8362 12.4364 15.5614 11.1693 14.002 11.1693C13.8654 11.1693 13.7288 11.1806 13.6036 11.2032C13.5581 12.4477 12.5337 13.4432 11.2703 13.4432H11.2134C11.1793 13.6243 11.1565 13.8053 11.1565 13.9976C11.1565 15.5475 12.4313 16.8146 14.002 16.8146Z" fill="#5928E5"/>
</svg>
