<svg width="12em" viewBox="0 0 179 43" fill="none" xmlns="http://www.w3.org/2000/svg">
<g clip-path="url(#clip0)">
<path fill-rule="evenodd" clip-rule="evenodd" d="M34 29.9193H52.5515V10.7583H34V29.9193Z" fill="#2B2A35"/>
<path fill-rule="evenodd" clip-rule="evenodd" d="M64.4228 24.1134C64.4228 23.12 64.1397 22.4277 63.5712 22.0372C63.0037 21.6532 62.2436 21.46 61.2891 21.46H59.477V26.5774H61.0988C61.5378 26.5774 61.9578 26.5435 62.362 26.4786C62.7648 26.4131 63.1181 26.2959 63.4201 26.119C63.7224 25.9425 63.9659 25.6943 64.1485 25.3721C64.3307 25.0478 64.4228 24.6322 64.4228 24.1134ZM63.7085 16.1213C63.7085 15.3638 63.4747 14.8239 63.0064 14.4929C62.5401 14.1591 61.8121 13.9965 60.8225 13.9965H59.477V18.3893H60.9612C61.9315 18.3893 62.6306 18.2145 63.0624 17.862C63.4933 17.5147 63.7085 16.9344 63.7085 16.1213ZM69.1215 24.3077C69.1215 25.4121 68.9043 26.3272 68.4744 27.0449C68.046 27.7624 67.468 28.3409 66.7436 28.7731C66.021 29.2067 65.1863 29.5062 64.2443 29.6681C63.2993 29.8372 62.307 29.9191 61.2628 29.9191H54.9146V10.7581H60.9868C61.9754 10.7581 62.9116 10.8382 63.7898 10.9927C64.6701 11.1489 65.4434 11.4167 66.1131 11.795C66.7801 12.1708 67.3101 12.6747 67.7059 13.3018C68.0993 13.9276 68.2973 14.7115 68.2973 15.6524C68.2973 16.2245 68.2008 16.7399 68.0085 17.2044C67.8159 17.6624 67.5588 18.061 67.2372 18.4026C66.9194 18.7451 66.5652 19.0219 66.1812 19.2317C65.7969 19.4456 65.4123 19.597 65.027 19.6904V19.798C65.4855 19.8924 65.9555 20.0377 66.4424 20.2435C66.9282 20.4455 67.3722 20.7209 67.7747 21.0726C68.1772 21.4251 68.5048 21.861 68.7501 22.3849C68.9984 22.9112 69.1215 23.5498 69.1215 24.3077Z" fill="#2B2A35"/>
<path fill-rule="evenodd" clip-rule="evenodd" d="M71.5203 29.919V26.905H74.5436V18.2521H71.5203V15.2387H78.4444L78.8017 17.976C79.1334 16.9819 79.6587 16.2023 80.3824 15.638C81.1041 15.0761 81.9168 14.7939 82.8132 14.7939C83.18 14.7939 83.4954 14.8143 83.761 14.851C84.0278 14.8856 84.3166 14.9505 84.6264 15.0445L83.9135 19.3287C83.6371 19.237 83.3669 19.1776 83.1021 19.1494C82.8365 19.1229 82.5491 19.1094 82.2377 19.1094C81.32 19.1094 80.603 19.4309 80.0794 20.0753C79.5585 20.7208 79.1779 21.5411 78.939 22.5362V26.905H82.6486V29.919H71.5203Z" fill="#2B2A35"/>
<path fill-rule="evenodd" clip-rule="evenodd" d="M92.9246 12.4987C92.1729 12.4987 91.5487 12.2617 91.0551 11.7806C90.5602 11.3022 90.3139 10.709 90.3139 10.0119C90.3139 9.31183 90.5602 8.71902 91.0551 8.24062C91.5487 7.76086 92.1729 7.52319 92.9246 7.52319C93.6766 7.52319 94.297 7.76086 94.7933 8.24062C95.2869 8.71902 95.5346 9.31183 95.5346 10.0119C95.5346 10.709 95.2869 11.3022 94.7933 11.7806C94.297 12.2617 93.6766 12.4987 92.9246 12.4987ZM98.8315 29.9189H86.605V26.9049H90.7272V18.252H86.7436V15.2387H95.123V26.9049H98.8315V29.9189Z" fill="#2B2A35"/>
<path fill-rule="evenodd" clip-rule="evenodd" d="M107.182 17.976C106.432 17.976 105.832 18.3287 105.383 19.038C104.935 19.751 104.711 20.9265 104.711 22.5633C104.711 23.4678 104.765 24.2158 104.876 24.8029C104.984 25.3947 105.141 25.8676 105.341 26.2157C105.544 26.5657 105.783 26.8081 106.057 26.945C106.33 27.0872 106.632 27.1555 106.964 27.1555C107.439 27.1555 107.87 27.0085 108.255 26.7124C108.64 26.4184 108.987 26.0031 109.299 25.4667V19.163C108.987 18.7929 108.668 18.5029 108.337 18.289C108.007 18.0778 107.622 17.976 107.182 17.976ZM106.003 14.7399C107.3 14.7399 108.401 15.1935 109.299 16.0926V8.9292L113.694 9.40182V29.9189H109.794L109.573 28.3177C109.171 28.8878 108.64 29.375 107.981 29.7855C107.321 30.1861 106.506 30.3892 105.535 30.3892C104.62 30.3892 103.826 30.2004 103.159 29.8245C102.489 29.4463 101.935 28.9125 101.496 28.2318C101.056 27.5514 100.726 26.7256 100.506 25.7566C100.287 24.7917 100.177 23.7184 100.177 22.5365C100.177 21.413 100.309 20.3713 100.576 19.4142C100.84 18.4544 101.224 17.6317 101.729 16.9363C102.233 16.2471 102.846 15.7093 103.569 15.3212C104.293 14.9307 105.105 14.7399 106.003 14.7399Z" fill="#2B2A35"/>
<path fill-rule="evenodd" clip-rule="evenodd" d="M119.989 20.0752C119.989 20.8523 120.199 21.4445 120.622 21.8604C121.042 22.2736 121.601 22.4804 122.298 22.4804C122.975 22.4804 123.507 22.2736 123.891 21.8604C124.276 21.4445 124.468 20.832 124.468 20.0178C124.468 18.4916 123.745 17.727 122.298 17.727C121.601 17.727 121.042 17.9327 120.622 18.3487C120.199 18.7649 119.989 19.3401 119.989 20.0752ZM119.082 30.8841C119.028 31.0348 118.983 31.1798 118.945 31.3285C118.909 31.4793 118.891 31.6226 118.891 31.7753C118.891 32.1767 119.133 32.5016 119.618 32.7403C120.102 32.9807 120.933 33.0975 122.104 33.0975C122.819 33.0975 123.396 33.0628 123.835 32.9909C124.276 32.9151 124.619 32.8126 124.866 32.6836C125.114 32.5552 125.283 32.4079 125.373 32.2429C125.465 32.0775 125.511 31.8887 125.511 31.6898C125.511 31.4681 125.465 31.2803 125.373 31.1234C125.283 30.9666 125.114 30.8274 124.866 30.7068C124.619 30.5873 124.279 30.4875 123.849 30.4023C123.419 30.3232 122.873 30.26 122.214 30.2254C121.098 30.1487 120.173 30.0295 119.439 29.8665C118.707 29.6991 118.123 29.4828 117.695 29.215C117.264 28.9443 116.962 28.6306 116.787 28.2619C116.613 27.8942 116.528 27.4657 116.528 26.9883C116.528 26.512 116.669 26.0529 116.953 25.6227C117.236 25.1861 117.625 24.8028 118.121 24.4731C117.351 24.0083 116.732 23.4273 116.266 22.7181C115.8 22.0061 115.565 21.1542 115.565 20.1607C115.565 19.3475 115.712 18.6101 116.005 17.9473C116.297 17.2835 116.729 16.7138 117.297 16.2327C117.863 15.7533 118.55 15.3835 119.358 15.1269C120.163 14.8651 121.078 14.7395 122.104 14.7395C123.698 14.7395 125.063 14.5524 126.198 14.1735C127.333 13.7976 128.332 13.3494 129.194 12.8313L130.266 16.121C129.733 16.3437 129.112 16.4945 128.396 16.562C127.683 16.6391 126.903 16.6741 126.061 16.6741V16.7844C126.886 17.1382 127.526 17.6051 127.986 18.1972C128.443 18.7883 128.671 19.5509 128.671 20.4931C128.671 21.1936 128.525 21.8407 128.232 22.4393C127.939 23.0396 127.522 23.5557 126.982 23.9876C126.442 24.4242 125.783 24.7627 125.004 25.0109C124.226 25.2608 123.36 25.3844 122.407 25.3844C122.113 25.3844 121.816 25.3718 121.514 25.3443C121.212 25.3151 120.904 25.2645 120.593 25.1932C120.373 25.4122 120.265 25.6343 120.265 25.8563C120.265 26.0193 120.3 26.1595 120.373 26.2709C120.447 26.3782 120.622 26.4783 120.894 26.5608C121.171 26.6434 121.578 26.7167 122.119 26.7826C122.658 26.8471 123.386 26.9048 124.303 26.9584C126.153 27.0902 127.554 27.5424 128.507 28.3172C129.458 29.089 129.936 30.1127 129.936 31.3818C129.936 32.159 129.753 32.8374 129.385 33.419C129.02 33.9993 128.501 34.4906 127.833 34.8827C127.165 35.2796 126.35 35.5743 125.389 35.7682C124.427 35.9628 123.341 36.0599 122.131 36.0599C120.813 36.0599 119.701 35.9628 118.793 35.7682C117.887 35.5743 117.146 35.3071 116.568 34.9652C115.991 34.6237 115.575 34.2315 115.318 33.7803C115.06 33.3243 114.933 32.8415 114.933 32.3247C114.933 31.9003 114.986 31.5132 115.085 31.1489C115.184 30.7921 115.391 30.425 115.703 30.0611L119.082 30.8841Z" fill="#2B2A35"/>
<path fill-rule="evenodd" clip-rule="evenodd" d="M137.854 17.6989C137.083 17.6989 136.465 17.981 135.998 18.5399C135.531 19.1039 135.251 19.9945 135.159 21.2123H140.461C140.445 20.1608 140.238 19.3086 139.844 18.6655C139.45 18.0218 138.786 17.6989 137.854 17.6989ZM135.215 23.8631C135.36 25.0643 135.745 25.9175 136.367 26.4238C136.992 26.9307 137.771 27.1816 138.704 27.1816C139.327 27.1816 139.937 27.0814 140.531 26.8767C141.125 26.6737 141.734 26.3348 142.358 25.8564L144.199 28.3693C143.484 28.9444 142.632 29.4228 141.645 29.8106C140.655 30.1949 139.564 30.3888 138.374 30.3888C137.109 30.3888 135.998 30.1949 135.036 29.8106C134.074 29.4228 133.277 28.8813 132.646 28.1897C132.013 27.5011 131.536 26.6801 131.216 25.7284C130.896 24.7828 130.735 23.732 130.735 22.5932C130.735 21.505 130.891 20.4874 131.202 19.5368C131.513 18.5854 131.972 17.7597 132.577 17.0504C133.18 16.3387 133.922 15.7772 134.803 15.3575C135.681 14.9484 136.689 14.7402 137.824 14.7402C138.869 14.7402 139.817 14.911 140.668 15.2529C141.521 15.5887 142.249 16.0817 142.853 16.7309C143.457 17.3746 143.926 18.1691 144.253 19.1093C144.584 20.0501 144.748 21.1088 144.748 22.2883C144.748 22.547 144.744 22.818 144.736 23.1052C144.725 23.3904 144.702 23.6461 144.667 23.8631H135.215Z" fill="#2B2A35"/>
<path fill-rule="evenodd" clip-rule="evenodd" d="M40.8144 15.402V15.9602L37.2847 17.4409V16.882L39.9952 15.7082L37.2847 14.5158V13.9434L40.8144 15.402Z" fill="#FFFFFE"/>
<path fill-rule="evenodd" clip-rule="evenodd" d="M40.8144 15.402V15.9602L37.2847 17.4409V16.882L39.9952 15.7082L37.2847 14.5158V13.9434L40.8144 15.402Z" stroke="#FFFFFE" stroke-width="1.3209"/>
<path fill-rule="evenodd" clip-rule="evenodd" d="M41.3242 19.7803H45.1411V19.0938H41.3242V19.7803Z" fill="#FFFFFE"/>
<path fill-rule="evenodd" clip-rule="evenodd" d="M41.3242 19.7803H45.1411V19.0938H41.3242V19.7803Z" stroke="#FFFFFE" stroke-width="1.3209"/>
</g>
<defs>
<clipPath id="clip0">
<rect width="111" height="29.6" fill="white" transform="translate(34 7.19995)"/>
</clipPath>
</defs>
</svg>
