<svg width="12em" xmlns="http://www.w3.org/2000/svg" fill="none" viewBox="0 0 179 43"><defs/><path fill="#2B2A35" fill-rule="evenodd" d="M37 31.908c0 1.376.893 2.268 2.27 2.268H45.9c3.956 0 7.192-1.337 9.392-3.68H37v1.412zM45.901 9H39.27C37.893 9 37 9.893 37 11.269v1.411h18.294C53.093 10.338 49.857 9 45.9 9zm5.787 16.176c0 1.113.726 1.835 1.845 1.835h3.973c.45-1.117.753-2.345.894-3.671h-4.867c-1.119 0-1.845.722-1.845 1.836zm-5.507-7.166c0 1.113.725 1.836 1.844 1.836H58.4a13.644 13.644 0 00-.894-3.672h-9.481c-1.119 0-1.844.723-1.844 1.836zm1.843 7.166c0-1.114-.726-1.836-1.845-1.836H37v3.671h9.18c1.118 0 1.843-.722 1.843-1.835zm-5.508-7.166c0-1.113-.726-1.836-1.844-1.836H37v3.672h3.672c1.118 0 1.844-.723 1.844-1.836zM83.667 21.209c.296-1.437 1.25-2.167 2.505-2.167 1.244 0 2.153.763 2.443 2.167h-4.948zm2.573-4.656c-3.194 0-5.181 2.557-5.181 5.686 0 3.24 2.123 5.643 5.279 5.643 2.176 0 3.496-1.008 4.313-2.278l-2.031-1.301c-.511.7-1.328 1.069-2.205 1.069-1.432 0-2.392-.673-2.72-2.017h5.363l-.001.005 1.955.012c.074-.354.117-.72.117-1.133 0-2.725-1.675-5.686-4.889-5.686zM72.876 25.365c-1.965 0-3.147-1.41-3.147-3.147 0-1.739 1.205-3.148 3.147-3.148 1.943 0 3.147 1.41 3.147 3.148 0 1.738-1.181 3.147-3.147 3.147zm2.933-7.149c-.784-.942-1.899-1.52-3.282-1.52-3.092 0-5.315 2.504-5.315 5.593 0 3.09 2.202 5.593 5.315 5.593 1.383 0 2.498-.578 3.282-1.52v1.245h2.732v-14.83H75.81v5.44zM99.484 22.032c.741.518 1.211 1.295 1.211 2.32 0 2.072-1.396 3.51-4.007 3.51-2.457 0-3.775-1.26-4.3-2.531l2.255-1.317s.304 1.374 2.004 1.374c1.053 0 1.376-.466 1.376-.876 0-.19-.06-.54-.81-.837-1.503-.594-4.411-.86-4.411-3.573 0-2.22 1.74-3.403 3.886-3.403 2.006 0 3.296 1.249 3.785 2.22l-2.207 1.29s-.425-1.079-1.558-1.079-1.235.655-1.235.846c0 .555.566.783 1.781 1.141.72.213 1.46.406 2.232.913l-.002.002zM144 19.616h-2.287v4.398c0 1.374 1.336 1.078 2.287 1.078v2.473s-.501.085-1.376.085c-1.943 0-3.522-.592-3.522-3.636v-4.398h-1.761v-2.621h1.761v-2.96h2.611v2.96H144v2.621zm-36.814 5.581c1.083 0 1.917-.54 2.338-1.425l2.263 1.356c-.887 1.624-2.539 2.754-4.601 2.754-3.127 0-5.313-2.498-5.313-5.58 0-3.083 2.206-5.582 5.313-5.582 2.031 0 3.678 1.112 4.574 2.715l-2.258 1.386c-.429-.874-1.256-1.416-2.316-1.416-1.58 0-2.702 1.297-2.702 2.896 0 1.6 1.112 2.896 2.702 2.896zM131.187 25.169c-1.7 0-2.723-1.326-2.723-2.962 0-1.636 1.042-2.961 2.723-2.961 1.681 0 2.724 1.325 2.724 2.961s-1.023 2.962-2.724 2.962zm.325-8.507c2.871 0 4.935 2.483 4.935 5.545 0 3.063-2.045 5.545-4.935 5.545-1.284 0-2.319-.573-3.048-1.507v5.414h-2.536V16.956h2.536v1.213c.729-.934 1.764-1.507 3.048-1.507zm-10.46 10.817V16.977h2.536V27.48h-2.536zm-4.727-8.708c.489-1.273 1.486-2 2.988-2.004v3.025c-1.761-.178-3.033.757-2.986 2.966l-.002-.005v4.726h-2.537V16.977h2.537v1.794zm4.727-3.195v-2.8h2.62v2.8h-2.62z" clip-rule="evenodd" /></svg>