<svg width="12em" xmlns="http://www.w3.org/2000/svg" fill="none" viewBox="0 0 179 43"><defs/><path fill="#2B2A35" d="M83.826 21.722c0 3.966 3.218 7.196 7.185 7.221v3.5c-5.908-.024-10.685-4.814-10.685-10.721 0-5.92 4.802-10.722 10.721-10.722 5.92 0 10.722 4.802 10.722 10.722v.036h-3.5v-.036c0-3.98-3.242-7.222-7.222-7.222-3.979 0-7.221 3.242-7.221 7.222zm23.138-6.67H126.7v-3.5h-19.736v3.5zm-46.718 0h12.392v-3.5H60.246v3.5zm0 8.389h12.392v-3.5H60.246v3.5zm0 8.462h12.392v-3.5H60.246v3.5zm-7.246 0h3.5v-20.35H53v20.35zm62.082 0h3.5V18.81h-3.5v13.092zm-24.66-8.241l8.56 8.56 2.48-2.48-8.572-8.56-2.469 2.48z"/></svg>