<svg width="12em" viewBox="0 0 179 43" fill="none" xmlns="http://www.w3.org/2000/svg">
<path fill-rule="evenodd" clip-rule="evenodd" d="M70.7437 26.4186C70.7437 26.9537 70.3514 27.3936 69.7933 27.3936C69.2504 27.3936 68.8582 26.9527 68.8582 26.4186V17.1223C68.8582 16.5871 69.2504 16.1472 69.8085 16.1472C70.3514 16.1472 70.7437 16.5881 70.7437 17.1223V26.4186Z" fill="black"/>
<path fill-rule="evenodd" clip-rule="evenodd" d="M82.931 17.1221V25.6168C82.931 26.7652 82.3431 27.4105 81.4079 27.4105H81.333C80.4432 27.4105 80.0202 26.8754 79.6436 26.0887L77.7429 22.2347L76.0535 18.2554L76.099 22.1095L76.1141 26.4034C76.1141 26.9385 75.7223 27.3784 75.1638 27.3784C74.6208 27.3784 74.229 26.9375 74.229 26.4034V17.9087C74.229 16.8546 74.817 16.115 75.8431 16.115H75.9184C76.8687 16.115 77.2606 16.6501 77.6381 17.4367L79.508 21.2597L81.1069 24.9724L81.0619 21.417L81.0468 17.1231C81.0468 16.588 81.4386 16.1481 81.9971 16.1481C82.5388 16.1471 82.931 16.587 82.931 17.1221Z" fill="black"/>
<path fill-rule="evenodd" clip-rule="evenodd" d="M90.4883 26.4033C90.4883 26.9384 90.0965 27.3783 89.538 27.3783C88.9955 27.3783 88.6032 26.9374 88.6032 26.4033V17.9878H86.2653C85.7829 17.9878 85.3911 17.61 85.3911 17.0598C85.3911 16.5247 85.7829 16.1479 86.2653 16.1479H92.8263C93.3086 16.1479 93.7009 16.5257 93.7009 17.0759C93.7009 17.611 93.3086 17.9878 92.8263 17.9878H90.4883V26.4033Z" fill="black"/>
<path fill-rule="evenodd" clip-rule="evenodd" d="M96.1596 26.0887V17.3586C96.1596 16.5409 96.5969 16.0849 97.3966 16.116H102.827C103.309 16.116 103.701 16.5088 103.701 17.0439C103.701 17.579 103.309 17.9558 102.827 17.9558H98.0296V20.6614H102.268C102.736 20.6614 103.113 21.0232 103.113 21.5423C103.113 22.0614 102.736 22.4231 102.268 22.4231H98.0296V25.5376H102.827C103.309 25.5376 103.701 25.9304 103.701 26.4655C103.701 27.0006 103.309 27.3774 102.827 27.3774H97.3511C96.567 27.3784 96.1301 26.9225 96.1596 26.0887Z" fill="black"/>
<path fill-rule="evenodd" clip-rule="evenodd" d="M113.974 27.4255C114.502 27.1419 114.668 26.5597 114.411 26.1038L112.526 22.6125C114.08 22.2979 114.985 21.1024 114.985 19.482C114.985 17.7835 113.96 16.116 111.5 16.116H107.926C107.127 16.0849 106.689 16.5409 106.689 17.3586V26.4194C106.689 26.9535 107.081 27.3944 107.624 27.3944C108.183 27.3944 108.575 26.9545 108.575 26.4194L108.559 22.9903H110.55L112.647 27.0327C112.902 27.4886 113.461 27.6931 113.974 27.4255ZM111.545 21.2116H108.558V17.9548H111.53C112.525 17.9548 113.083 18.6152 113.083 19.5752C113.083 20.5352 112.556 21.2116 111.545 21.2116Z" fill="black"/>
<path fill-rule="evenodd" clip-rule="evenodd" d="M118.875 26.5447C117.744 25.4905 117.231 23.8391 117.231 21.7627C117.231 19.6704 117.729 18.035 118.846 16.9968C119.54 16.3675 120.474 15.9426 121.832 15.9426C123.024 15.9426 123.944 16.2262 124.638 16.8395C125.242 17.3425 125.679 18.051 125.935 19.0421C126.071 19.5611 125.724 20.0802 125.151 20.1904C124.608 20.2847 124.171 19.9229 124.005 19.4038C123.824 18.9008 123.582 18.539 123.296 18.2865C122.904 17.9247 122.421 17.7674 121.787 17.7674C121.109 17.7674 120.52 17.9718 120.082 18.4278C119.449 19.0882 119.177 20.2686 119.177 21.7627C119.177 23.2418 119.434 24.4212 120.098 25.0816C120.535 25.5376 121.109 25.742 121.772 25.742C122.465 25.742 122.993 25.5536 123.431 25.1287C123.657 24.9083 123.854 24.6257 123.989 24.295C124.186 23.807 124.593 23.4452 125.12 23.5715C125.648 23.6978 125.981 24.2319 125.814 24.751C125.542 25.6157 125.075 26.3082 124.442 26.7802C123.748 27.2992 122.888 27.5668 121.803 27.5668C120.415 27.5668 119.54 27.1419 118.875 26.5447Z" fill="black"/>
<path fill-rule="evenodd" clip-rule="evenodd" d="M132.723 15.9426C129.45 15.9426 128.062 18.2394 128.062 21.7627C128.062 25.3963 129.435 27.5828 132.723 27.5828C135.951 27.5828 137.369 25.3963 137.369 21.7627C137.369 18.1763 135.966 15.9426 132.723 15.9426ZM132.708 17.7835C134.503 17.7835 135.438 19.0882 135.438 21.7627C135.438 24.4363 134.488 25.742 132.708 25.742C130.913 25.742 130.008 24.4373 130.008 21.7627C130.008 19.0892 130.943 17.7835 132.708 17.7835Z" fill="black"/>
<path fill-rule="evenodd" clip-rule="evenodd" d="M152 26.4033C152 26.9384 151.608 27.3783 151.05 27.3783C150.507 27.3783 150.115 26.9374 150.115 26.4033V22.1875L150.16 18.082L148.847 22.2506L147.52 26.3562C147.295 27.0797 146.827 27.3633 146.238 27.3633C145.62 27.3633 145.167 27.0647 144.926 26.3411L143.568 22.2517L142.316 18.1461L142.361 22.1885V26.4043C142.361 26.9394 141.969 27.3793 141.411 27.3793C140.868 27.3793 140.476 26.9384 140.476 26.4043V17.9888C140.476 16.8243 141.079 16.1479 142.135 16.1479C143.131 16.1479 143.689 16.6981 144.005 17.7052L145.393 21.9991L146.237 24.9252L147.097 21.9991L148.485 17.7052C148.802 16.6981 149.345 16.1479 150.341 16.1479C151.397 16.1479 151.985 16.8083 151.985 17.9888L152 26.4033Z" fill="black"/>
<path d="M53.634 23.37C53.634 23.6513 53.5262 23.9212 53.3344 24.1202C53.1425 24.3191 52.8823 24.4309 52.6109 24.4309C52.3396 24.4309 52.0794 24.3191 51.8875 24.1202C51.6956 23.9212 51.5878 23.6513 51.5878 23.37V13.8915C51.5878 13.6101 51.6956 13.3402 51.8875 13.1413C52.0794 12.9423 52.3396 12.8305 52.6109 12.8305C52.8823 12.8305 53.1425 12.9423 53.3344 13.1413C53.5262 13.3402 53.634 13.6101 53.634 13.8915V23.37ZM53.2789 29.9373C53.1436 30.0777 49.3388 33.3657 42.3632 33.3657C35.3876 33.3657 31.6081 30.0952 31.4475 29.9549C31.3462 29.8664 31.2628 29.758 31.2021 29.636C31.1413 29.5139 31.1044 29.3807 31.0933 29.2439C31.0824 29.107 31.0975 28.9692 31.138 28.8385C31.1784 28.7077 31.2434 28.5865 31.3291 28.4818C31.5057 28.27 31.7559 28.1391 32.0251 28.1177C32.2944 28.0963 32.5609 28.1863 32.7665 28.3678C32.8257 28.4117 36.2247 31.2701 42.3547 31.2701C48.4848 31.2701 51.9091 28.3942 51.943 28.3678C52.1508 28.1879 52.4182 28.0992 52.6882 28.1205C52.9582 28.1417 53.2096 28.2714 53.3888 28.4818C53.5613 28.6905 53.6474 28.9614 53.6284 29.2356C53.6094 29.5098 53.4869 29.7651 53.2874 29.9461L53.2789 29.9373ZM31.0839 13.8915C31.0992 13.6092 31.2216 13.3447 31.4244 13.1557C31.6272 12.9668 31.8939 12.8688 32.1662 12.8831C32.4186 12.898 32.6567 13.0093 32.8347 13.1955C33.0127 13.3817 33.1179 13.6296 33.13 13.8915V23.3524C33.13 23.6338 33.0223 23.9037 32.8304 24.1026C32.6386 24.3016 32.3783 24.4133 32.107 24.4133C31.8356 24.4133 31.5754 24.3016 31.3835 24.1026C31.1917 23.9037 31.0839 23.6338 31.0839 23.3524V13.8915ZM36.2162 11.7871C36.2315 11.5048 36.3539 11.2403 36.5567 11.0514C36.7595 10.8624 37.0262 10.7644 37.2985 10.7788C37.5509 10.7936 37.7891 10.9049 37.967 11.0911C38.145 11.2773 38.2503 11.5252 38.2624 11.7871V25.8163C38.2624 26.0976 38.1546 26.3675 37.9628 26.5665C37.7709 26.7654 37.5106 26.8772 37.2393 26.8772C36.968 26.8772 36.7077 26.7654 36.5159 26.5665C36.324 26.3675 36.2162 26.0976 36.2162 25.8163V11.7871ZM41.3739 11.261C41.3739 10.9796 41.4817 10.7098 41.6736 10.5108C41.8654 10.3118 42.1257 10.2 42.397 10.2C42.6684 10.2 42.9286 10.3118 43.1204 10.5108C43.3123 10.7098 43.4201 10.9796 43.4201 11.261V26.5177C43.4201 26.7991 43.3123 27.069 43.1204 27.2679C42.9286 27.4669 42.6684 27.5787 42.397 27.5787C42.1257 27.5787 41.8654 27.4669 41.6736 27.2679C41.4817 27.069 41.3739 26.7991 41.3739 26.5177V11.261ZM46.4471 11.7871C46.4471 11.5057 46.5548 11.2359 46.7467 11.0369C46.9386 10.8379 47.1988 10.7261 47.4702 10.7261C47.7415 10.7261 48.0017 10.8379 48.1936 11.0369C48.3854 11.2359 48.4932 11.5057 48.4932 11.7871V25.8163C48.4932 26.0976 48.3854 26.3675 48.1936 26.5665C48.0017 26.7654 47.7415 26.8772 47.4702 26.8772C47.1988 26.8772 46.9386 26.7654 46.7467 26.5665C46.5548 26.3675 46.4471 26.0976 46.4471 25.8163V11.7871ZM53.913 6.00009H30.8471C30.3445 5.9966 29.8462 6.09596 29.3807 6.29251C28.9152 6.48902 28.4917 6.77883 28.1343 7.14533C27.7769 7.51187 27.4928 7.94786 27.2982 8.42841C27.1035 8.90893 27.0022 9.42458 27 9.9458V33.62C27.0022 34.1412 27.1035 34.6569 27.2982 35.1374C27.4928 35.6179 27.7769 36.0539 28.1343 36.4205C28.4917 36.787 28.9152 37.0768 29.3807 37.2733C29.8462 37.4698 30.3445 37.5691 30.8471 37.5657H53.913C54.4149 37.5691 54.9125 37.4701 55.3775 37.2741C55.8425 37.0782 56.2657 36.7891 56.6229 36.4235C56.9801 36.058 57.2644 35.623 57.4596 35.1435C57.6547 34.6639 57.7569 34.1492 57.7602 33.6288V9.9458C57.758 9.4253 57.6569 8.9104 57.4628 8.43043C57.2687 7.95047 56.9853 7.51486 56.6289 7.14845C56.2724 6.78208 55.8498 6.49209 55.3853 6.29504C54.9208 6.09798 54.4234 5.99777 53.9215 6.00009" fill="black"/>
</svg>
