<svg width="12em" viewBox="0 0 179 43" fill="none" xmlns="http://www.w3.org/2000/svg">
<path d="M128 19.516C128 19.516 128.119 13 120.252 13C115.604 13 111.948 16.6156 111.948 22.6151C111.948 29.4489 116.239 32.2301 120.451 32.2301C126.291 32.2301 127.801 26.7074 127.801 26.7074H127.086C127.086 26.7074 125.457 29.2105 121.841 29.2105C118.862 29.2105 116.2 26.3101 116.2 21.9793C116.2 16.4964 118.266 14.5893 120.411 14.5893C124.901 14.5893 124.146 19.516 124.146 19.516H128Z" fill="black"/>
<path d="M87.7915 19.7146C87.7915 17.2513 87.1955 13 80.7192 13C73.2497 13 73.1702 17.9267 73.1702 17.9267L77.3421 17.887C77.3421 17.887 76.8255 14.4303 80.2027 14.4303C82.7058 14.4303 83.858 16.4169 83.858 20.3106V21.4628C82.7058 20.7874 81.2358 20.3106 79.5273 20.3106C74.9979 20.3106 72.1372 22.774 72.1372 26.2704C72.1372 29.8859 74.839 32.1506 78.4545 32.1506C81.4741 32.1506 83.1826 30.0051 84.0964 28.098H84.4143C84.4143 30.0449 85.0897 31.7533 85.0897 31.7533H88.3477C88.3477 31.7533 87.7517 30.0051 87.7517 27.0253V19.7146H87.7915ZM79.7259 29.4886C77.5804 29.4886 75.9514 28.1378 75.9514 26.032C75.9514 23.8467 77.5804 22.2575 80.2027 22.2575C81.8715 22.2575 82.9839 22.7342 83.8978 23.4892V24.6811C83.5799 27.502 81.9509 29.4886 79.7259 29.4886Z" fill="black"/>
<path d="M51 13.4768C51.5165 22.6548 51 31.8328 51 31.8328H55.0924C55.0924 31.8328 54.5758 22.6548 55.0924 13.4768H51Z" fill="black"/>
<path d="M105.035 13.4768C105.551 22.6548 105.035 31.8328 105.035 31.8328H109.127C109.127 31.8328 108.611 22.6548 109.127 13.4768H105.035Z" fill="black"/>
<path d="M71.3426 15.8607L70.9453 13.4768H64.1511H57.357L56.9597 15.8607C58.0722 15.662 60.4958 15.5429 62.2043 15.4634C62.5619 23.9262 62.1248 31.8328 62.1248 31.8328H66.2172C66.2172 31.8328 65.7801 23.9262 66.1377 15.4634C67.8065 15.5429 70.2301 15.662 71.3426 15.8607Z" fill="black"/>
<path d="M95.698 29.8859C95.3404 21.3833 95.7775 13.437 95.7775 13.437H91.7249C91.7249 13.437 92.2414 22.615 91.7249 31.793H95.4596H102.651L103.048 28.2966H102.77C100.426 29.8462 96.6516 29.8859 95.698 29.8859Z" fill="black"/>
</svg>
