<svg width="12em" xmlns="http://www.w3.org/2000/svg" fill="none" viewBox="0 0 179 43"><defs/><path fill="#000" d="M78.156 32.315v-21.39h3.927v21.39h-3.927zM115.823 17.779h3.75v1.773c.797-1.418 2.658-2.186 4.253-2.186 1.979 0 3.573.857 4.311 2.422 1.151-1.773 2.688-2.422 4.607-2.422 2.687 0 5.256 1.625 5.256 5.524v9.425h-3.809v-8.627c0-1.566-.769-2.747-2.57-2.747-1.684 0-2.688 1.3-2.688 2.866v8.509h-3.897v-8.628c0-1.566-.797-2.747-2.569-2.747-1.713 0-2.718 1.27-2.718 2.866v8.509h-3.926V17.779zM90.958 32.736c-4.424 0-7.628-3.281-7.628-7.689 0-4.337 3.194-7.696 7.628-7.696 4.456 0 7.628 3.39 7.628 7.696 0 4.376-3.206 7.69-7.628 7.69zm0-11.827a4.143 4.143 0 00-4.138 4.14 4.143 4.143 0 004.138 4.139 4.142 4.142 0 004.137-4.14 4.142 4.142 0 00-4.137-4.14zM106.975 32.736c-4.424 0-7.628-3.281-7.628-7.689 0-4.337 3.193-7.696 7.628-7.696 4.456 0 7.628 3.39 7.628 7.696 0 4.376-3.208 7.69-7.628 7.69zm0-11.877a4.192 4.192 0 00-4.186 4.187 4.192 4.192 0 004.186 4.188 4.191 4.191 0 004.185-4.188 4.192 4.192 0 00-4.185-4.187zM70.24 19.994h-8.55l7.405-4.275-1.626-2.817-7.405 4.275 4.274-7.405-2.817-1.627-4.275 7.405V7h-3.252v8.55l-4.276-7.405-2.817 1.627 4.276 7.404-7.405-4.274-1.627 2.816 7.405 4.276H41v3.252h8.55l-7.405 4.275 1.627 2.818 7.404-4.275L46.9 33.47l2.817 1.626 4.275-7.405v8.55h3.253v-8.55l4.274 7.405 2.817-1.626-4.275-7.405 7.405 4.275 1.627-2.818-7.405-4.274h8.55v-3.253h.001zm-14.62 6.05a4.44 4.44 0 110-8.88 4.44 4.44 0 010 8.88z"/></svg>