<svg fill="none" height="5em" width="12em" xmlns="http://www.w3.org/2000/svg"><path d="M12.034 8.624L122.702.456C136.292-.712 139.788.07 148.33 6.29l35.327 24.885c5.829 4.28 7.772 5.444 7.772 10.11v136.483c0 8.554-3.11 13.612-13.98 14.386l-128.518 7.778c-8.16.39-12.043-.775-16.316-6.222L6.6 159.88C1.938 153.653 0 148.995 0 143.544V22.228c0-6.995 3.11-12.83 12.034-13.604z" fill="#fff"/><g fill="#000"><path clip-rule="evenodd" d="M122.702.456L12.034 8.624C3.11 9.4 0 15.234 0 22.228v121.316c0 5.451 1.938 10.109 6.6 16.336l26.015 33.829c4.273 5.447 8.157 6.612 16.316 6.222l128.518-7.778c10.87-.774 13.98-5.832 13.98-14.386V41.283c0-4.421-1.746-5.699-6.892-9.464l-.88-.645L148.33 6.289C139.788.07 136.292-.712 122.702.456zm-70.86 38.589c-10.493.71-12.877.871-18.835-3.98L17.855 23.01c-1.545-1.559-.77-3.503 3.11-3.889l106.388-7.777c8.928-.78 13.586 2.336 17.082 5.057l18.247 13.222c.777.387 2.715 2.717.385 2.717L53.196 38.953l-1.355.092zM39.607 176.598V60.728c0-5.053 1.553-7.388 6.21-7.78L172 45.562c4.28-.388 6.218 2.335 6.218 7.386V168.04c0 5.058-.779 9.342-7.77 9.727L49.701 184.77c-6.988.385-10.093-1.944-10.093-8.172zM158.81 66.944c.774 3.503 0 7.003-3.501 7.397l-5.818 1.162v85.542c-5.051 2.721-9.709 4.277-13.591 4.277-6.214 0-7.771-1.946-12.426-7.775l-38.055-59.88v57.936l12.042 2.723s0 6.996-9.716 6.996l-26.783 1.557c-.779-1.557 0-5.442 2.716-6.221l6.99-1.941V82.115l-9.705-.78c-.778-3.502 1.16-8.553 6.6-8.945l28.733-1.941 39.604 60.659V77.447l-10.097-1.162c-.776-4.282 2.326-7.392 6.209-7.777z" fill-rule="evenodd"/><path d="M276.235 141.676v-52.74h.913l38.024 52.74h11.976V64.178h-13.319v52.685h-.913l-38.023-52.685h-12.03v77.498zM364.775 142.857c17.561 0 28.249-11.493 28.249-30.559 0-19.011-10.741-30.558-28.249-30.558-17.455 0-28.25 11.6-28.25 30.558 0 19.066 10.634 30.559 28.25 30.559zm0-11.171c-9.292 0-14.608-7.089-14.608-19.388 0-12.244 5.316-19.387 14.608-19.387 9.237 0 14.554 7.143 14.554 19.387 0 12.299-5.263 19.388-14.554 19.388zM405.193 68.528v14.77h-9.291V93.93h9.291v32.062c0 11.386 5.371 15.951 18.851 15.951 2.578 0 5.048-.268 6.982-.644v-10.419c-1.611.161-2.632.268-4.511.268-5.586 0-8.056-2.578-8.056-8.378v-28.84h12.567V83.297h-12.567V68.528zM439.007 141.676h13.265V82.921h-13.265zm6.605-68.475c4.404 0 7.949-3.545 7.949-8.002s-3.545-8.056-7.949-8.056c-4.35 0-7.948 3.598-7.948 8.056s3.598 8.002 7.948 8.002zM488.663 142.857c17.562 0 28.249-11.493 28.249-30.559 0-19.011-10.741-30.558-28.249-30.558-17.455 0-28.249 11.6-28.249 30.558 0 19.066 10.633 30.559 28.249 30.559zm0-11.171c-9.291 0-14.608-7.089-14.608-19.388 0-12.244 5.317-19.387 14.608-19.387 9.237 0 14.554 7.143 14.554 19.387 0 12.299-5.263 19.388-14.554 19.388zM524.839 141.676h13.319v-34.211c0-8.647 4.995-14.125 12.943-14.125 8.11 0 11.869 4.512 11.869 13.481v34.855h13.319v-38.024c0-14.017-7.143-21.912-20.247-21.912-8.754 0-14.662 4.028-17.454 10.58h-.913v-9.399h-12.836z"/></g></svg>