<svg width="12em" xmlns="http://www.w3.org/2000/svg" fill="none" viewBox="0 0 179 43"><defs/><path fill="#000" d="M40.98 29.141c0-.087 0-.168-.03-.261a6.714 6.714 0 00-1.079-2.829 7.219 7.219 0 00-1.245-1.245c-.137-.106-.256-.057-.262.112l-.118 1.75c0 .168-.2.175-.25 0l-.772-2.46a.723.723 0 00-.393-.4 12.225 12.225 0 00-1.582-.43c-.71-.124-1.738-.192-1.738-.192-.174 0-.23.106-.13.243l1.058 1.925c.1.143 0 .28-.15.168l-2.304-1.869a1.87 1.87 0 00-1.47-.25 30.8 30.8 0 00-1.246.238.337.337 0 00-.2.13.324.324 0 00-.068.225s.056.747.118 1.245a1.87 1.87 0 00.623 1.34l2.399 1.713c.15.1.043.25-.119.187L29.886 28c-.162-.062-.256 0-.206.187 0 0 .355.972.666 1.614.264.502.564.985.898 1.445a.721.721 0 00.485.268l2.58.062c.168 0 .211.193.056.243l-1.651.623c-.162.05-.175.174-.038.28a7.29 7.29 0 001.558.847 6.671 6.671 0 003.021.256 12.117 12.117 0 002.218-.53 4.954 4.954 0 01-.044-.623 4.797 4.797 0 011.576-3.538M59.382 24.027a.355.355 0 00-.068-.224.336.336 0 00-.2-.131s-.735-.156-1.245-.23a1.87 1.87 0 00-1.464.242l-2.305 1.87c-.137.111-.25 0-.15-.17l1.053-1.924c.106-.137.05-.25-.125-.243 0 0-1.028.069-1.738.193-.536.108-1.065.251-1.582.43a.722.722 0 00-.392.399l-.773 2.454c-.05.162-.243.156-.25 0l-.124-1.75c0-.169-.118-.218-.255-.113a7.236 7.236 0 00-1.246 1.246 6.634 6.634 0 00-1.078 2.804v.261a4.765 4.765 0 011.527 4.162c.723.245 1.467.422 2.224.53a6.68 6.68 0 003.02-.256 7.285 7.285 0 001.558-.847c.137-.106.125-.23-.037-.28l-1.651-.624c-.156-.05-.112-.236.056-.243l2.573-.062a.698.698 0 00.492-.268c.307-.448.584-.916.829-1.401.317-.623.672-1.614.672-1.614.05-.162-.043-.25-.205-.187l-2.137.48c-.168.062-.268-.087-.125-.187l2.418-1.713a1.868 1.868 0 00.622-1.34c.063-.517.119-1.245.119-1.245M52.63 15.885c0-.268-.175-.368-.412-.218l-2.491 1.358c-.23.15-.28-.137-.113-.355l2.38-3.177a1.017 1.017 0 00.143-.866 19 19 0 00-1.115-2.492 18.022 18.022 0 00-1.445-2.018c-.168-.212-.374-.175-.46.08l-1.166 2.91c-.087.255-.305.249-.299 0l.137-4.566a1.29 1.29 0 00-.349-.873s-.691-.697-1.246-1.208c-.554-.511-1.588-1.32-1.588-1.32a.623.623 0 00-.785 0s-.978.765-1.613 1.32c-.636.554-1.246 1.202-1.246 1.202a1.296 1.296 0 00-.374.847l.143 4.567c0 .274-.212.28-.305 0L39.26 8.198c-.081-.256-.293-.293-.461-.075a17.669 17.669 0 00-1.514 2.149c-.41.758-.764 1.545-1.059 2.355a1.036 1.036 0 00.137.853l2.392 3.19c.169.218.119.504-.118.355l-2.492-1.358c-.23-.15-.423-.05-.417.218.02.881.162 1.755.423 2.598a10.335 10.335 0 002.748 3.974 19.578 19.578 0 013.83 5.675 4.746 4.746 0 012.922 0 19.792 19.792 0 013.807-5.669 10.495 10.495 0 002.604-3.594 9.823 9.823 0 00.566-2.978M47.322 32.68a3.114 3.114 0 11-6.229 0 3.114 3.114 0 016.229 0zM130.804 28.17h5.719v-.785l-.785-.25c-.449-.137-.499-.249-.517-.766V10.833h-.293a13.126 13.126 0 00-4.323.747v.623l.903.206a.723.723 0 01.623.81v13.15c0 .517-.044.623-.492.767l-.816.249-.019.785zM100.192 19.84a3.741 3.741 0 00.586-1.825c.02-.193-.002-.389-.065-.573a1.336 1.336 0 00-1.356-.89c-.947 0-1.912.566-2.585 2.491V16.69h-.23a13.033 13.033 0 00-4.299.74v.655l.879.224a.7.7 0 01.623.791v7.295c0 .492-.044.623-.493.741l-.81.268v.767h5.9v-.785l-.947-.275c-.474-.112-.498-.224-.517-.716v-6.759c.358-.27.797-.413 1.246-.405.73.05 1.439.262 2.074.623l-.006-.012zm10.266.393c.099-1.14.076-2.286-.068-3.42-1.215-.043-2.156-.224-3.233-.224-3.022 0-4.529 1.757-4.529 3.694 0 1.246.585 2.492 2.591 3.333l.717.268c1.869.722 2.28 1.245 2.28 1.912 0 .667-.586 1.352-1.869 1.352a2.292 2.292 0 01-2.286-1.663l-.181-.929h-1.371a12.896 12.896 0 000 3.489 34.14 34.14 0 003.688.343c3.445 0 4.947-2.187 4.947-3.832 0-1.19-.823-2.404-3.115-3.332l-.717-.268c-1.738-.673-2.161-1.246-2.161-1.956s.623-1.196 1.781-1.215c1.159-.019 1.277.903 1.527 1.775l.18.673h1.819zM86.064 25.99a2.492 2.492 0 01-1.508.56 1.868 1.868 0 01-1.869-1.707c0-.897.947-2.037 3.358-2.33l.019 3.476zm4.616 1.731l.267-.623c-1.713-.361-1.912-.791-1.912-2.616v-3.944c0-2.43-1.06-3.987-4.074-3.987a6.716 6.716 0 00-4.012 1.128 1.75 1.75 0 00-.785 1.464c.021.52.211 1.019.542 1.42 1.732-1.781 2.79-2.211 3.688-2.211 1.283 0 1.657.978 1.67 2.896-4.212.567-6.15 2.143-6.15 4.031a3.115 3.115 0 003.016 3.115 3.856 3.856 0 003.314-1.8 2.368 2.368 0 002.311 1.781 4.135 4.135 0 002.118-.623M150.601 17.592v-.835h-4.983v.835l.872.243c.654.18.747.473.567 1.102a53.103 53.103 0 01-1.813 6.037l-3.015-6.33c-.224-.467-.206-.716.43-.878l.828-.174v-.835h-5.918v.878l.405.113c.38.112.449.267.698.766l4.983 9.967-.292.586c-.623 1.19-1.689 1.98-4.729 2.859.362 1.414 1.01 2.068 1.801 2.068h.05c1.171 0 2.629-1.576 3.688-3.463 1.47-2.604 2.809-5.644 4.983-11.643.318-.879.386-1.035.972-1.172l.473-.124zM127.141 28.325a1.99 1.99 0 001.842-1.23 1.992 1.992 0 00-1.453-2.718 1.994 1.994 0 10-.389 3.948zM77.965 17.05a4.23 4.23 0 00-2.928-4.056c-1.103-.38-2.224-.517-4.678-.517h-5.675v.879l.623.137c1.245.268 1.326.311 1.351.81.025.498 0 1.439 0 2.491v9.843c0 .517-.112.542-1.351.81l-.623.137v.878h7.475v-.878l-.673-.137c-1.246-.268-1.327-.312-1.352-.81-.024-.498 0-1.439 0-2.523V13.873a7.3 7.3 0 01.854-.069 3.32 3.32 0 013.29 2.274c.204.523.304 1.082.292 1.645 0 1.17-.336 2.273-1.246 2.859a3.65 3.65 0 01-2.236.548v.916c3.987.735 6.896-1.514 6.896-4.984M118.594 16.533a5.218 5.218 0 00-3.831 1.464 5.892 5.892 0 00-1.707 4.323c0 3.351 1.913 6.074 5.607 6.074a5.896 5.896 0 004.479-2.05l.137-.828a6.983 6.983 0 01-3.084.785 4.11 4.11 0 01-2.448-.704 2.831 2.831 0 01-.748-.723l-.124-.174a4.412 4.412 0 01-.623-1.458 7.072 7.072 0 01-.119-3.021c.072-.63.348-1.218.785-1.676.259-.253.594-.413.953-.455h.057c.307-.032.616.02.897.15l.074.03a1.863 1.863 0 01.692.611l.062.094c.037.062.075.112.106.174a4.18 4.18 0 01.355 2.205.553.553 0 000 .1l-3.077.2c-.004.42.048.839.155 1.245h6.006c.673-4.448-1.869-6.316-4.548-6.316"/></svg>