<svg width="12em" viewBox="0 0 179 43" fill="none" xmlns="http://www.w3.org/2000/svg">
<path d="M11.3216 27.8796C9.69974 27.8796 8.25921 27.3154 7 26.1872L7.74041 25.3108C8.30454 25.8245 8.86866 26.2023 9.43279 26.4441C10.007 26.6858 10.6517 26.8067 11.3669 26.8067C12.0721 26.8067 12.6413 26.6405 13.0744 26.3081C13.5076 25.9656 13.7242 25.5223 13.7242 24.9783C13.7242 24.4646 13.5328 24.0566 13.15 23.7544C12.7672 23.4522 12.0419 23.1903 10.9741 22.9686C9.71485 22.6967 8.80822 22.329 8.25417 21.8656C7.70012 21.4022 7.42309 20.7424 7.42309 19.8861C7.42309 19.05 7.75049 18.3599 8.40528 17.816C9.06006 17.272 9.89114 17 10.8985 17C12.2987 17 13.5378 17.4332 14.6157 18.2995L13.9206 19.2212C12.9838 18.4556 11.9663 18.0728 10.8683 18.0728C10.1934 18.0728 9.64937 18.2391 9.23635 18.5715C8.82333 18.8938 8.61682 19.3069 8.61682 19.8106C8.61682 20.3344 8.81326 20.7474 9.20613 21.0496C9.60908 21.3518 10.3696 21.6238 11.4878 21.8656C12.6866 22.1275 13.558 22.4952 14.1019 22.9686C14.656 23.432 14.933 24.0717 14.933 24.8877C14.933 25.7842 14.5955 26.5095 13.9206 27.0636C13.2457 27.6076 12.3793 27.8796 11.3216 27.8796Z" fill="#2B2A35"/>
<path d="M27.6356 27.8947C26.2958 27.8947 25.228 27.4968 24.4322 26.7009C23.6364 25.895 23.2385 24.7618 23.2385 23.3011V17.1511H24.4322V23.2255C24.4322 24.3638 24.7143 25.2453 25.2784 25.8699C25.8526 26.4844 26.6484 26.7916 27.6658 26.7916C28.6631 26.7916 29.4438 26.4944 30.008 25.9001C30.5721 25.3057 30.8542 24.4394 30.8542 23.3011V17.1511H32.0479V23.2104C32.0479 24.7215 31.65 25.8799 30.8542 26.6858C30.0583 27.4917 28.9855 27.8947 27.6356 27.8947Z" fill="#2B2A35"/>
<path d="M40.9146 27.7285V17.1511H44.8735C46.0824 17.1511 47.0444 17.4533 47.7596 18.0577C48.4748 18.6622 48.8325 19.4882 48.8325 20.5359C48.8325 21.6339 48.4346 22.4851 47.6387 23.0895C46.853 23.6939 45.8658 23.9962 44.6771 23.9962H42.1083V27.7285H40.9146ZM42.1083 22.9082H44.7224C45.5988 22.9082 46.2989 22.6967 46.8228 22.2736C47.3567 21.8404 47.6236 21.2662 47.6236 20.551C47.6236 19.8156 47.3667 19.2515 46.853 18.8586C46.3493 18.4556 45.6593 18.2542 44.7828 18.2542H42.1083V22.9082Z" fill="#2B2A35"/>
<path d="M57.0521 27.7285V17.1511H64.698V18.2391H58.2458V21.8505H64.018V22.9384H58.2458V26.6405H64.7736V27.7285H57.0521Z" fill="#2B2A35"/>
<path d="M73.2191 27.7285V17.1511H77.7674C79.0669 17.1511 80.0692 17.5037 80.7744 18.2088C81.3184 18.7528 81.5904 19.458 81.5904 20.3243C81.5904 21.1705 81.3284 21.8555 80.8046 22.3793C80.2808 22.9032 79.5857 23.2457 78.7194 23.4068L81.9681 27.7285H80.5024L77.435 23.6184H74.4129V27.7285H73.2191ZM74.4129 22.5456H77.6616C78.4675 22.5456 79.1223 22.3491 79.626 21.9562C80.1297 21.5634 80.3815 21.0244 80.3815 20.3394C80.3815 19.6846 80.1398 19.1759 79.6562 18.8133C79.1828 18.4405 78.5229 18.2542 77.6767 18.2542H74.4129V22.5456Z" fill="#2B2A35"/>
<path d="M90.183 27.7285V17.1511H91.3768V21.8505H97.4814V17.1511H98.6751V27.7285H97.4814V22.9686H91.3768V27.7285H90.183Z" fill="#2B2A35"/>
<path d="M111.939 27.8947C110.599 27.8947 109.531 27.4968 108.735 26.7009C107.939 25.895 107.541 24.7618 107.541 23.3011V17.1511H108.735V23.2255C108.735 24.3638 109.017 25.2453 109.581 25.8699C110.156 26.4844 110.951 26.7916 111.969 26.7916C112.966 26.7916 113.747 26.4944 114.311 25.9001C114.875 25.3057 115.157 24.4394 115.157 23.3011V17.1511H116.351V23.2104C116.351 24.7215 115.953 25.8799 115.157 26.6858C114.361 27.4917 113.288 27.8947 111.939 27.8947Z" fill="#2B2A35"/>
<path d="M125.218 27.7285V17.1511H126.426L130.28 22.9233L134.133 17.1511H135.342V27.7285H134.148V19.1608L130.295 24.8272H130.234L126.381 19.1759V27.7285H125.218Z" fill="#2B2A35"/>
<path d="M143.474 27.7285L148.294 17.0756H149.412L154.232 27.7285H152.948L151.709 24.933H145.952L144.697 27.7285H143.474ZM146.42 23.8602H151.24L148.838 18.4657L146.42 23.8602Z" fill="#2B2A35"/>
<path d="M162.362 27.7285V17.1511H163.48L170.144 25.6281V17.1511H171.308V27.7285H170.356L163.526 19.055V27.7285H162.362Z" fill="#2B2A35"/>
</svg>
