<svg width="12em" viewBox="0 0 179 43" fill="none" xmlns="http://www.w3.org/2000/svg">
<path d="M45.4549 15.9781H52.5604V28.5604H30V15.9781H37.1054V22.2679H45.4549V15.9781ZM69.4581 22.4305C69.4581 24.5599 68.0514 25.8194 66.1286 25.8194C64.2497 25.8194 62.8224 24.5599 62.8224 22.4305V12.3002H59.6684V22.3996C59.6684 26.3872 62.5075 28.9062 66.1364 28.9062C69.7652 28.9062 72.6275 26.3872 72.6275 22.3996V12.3002H69.4658L69.4581 22.4305ZM80.737 16.9769C79.5239 16.9769 78.1715 17.4931 77.4849 18.6726V17.2763H74.5297V28.5397H77.5779V22.0615C77.5779 20.771 78.3522 19.7386 79.6839 19.7386C81.1499 19.7386 81.7694 20.7245 81.7694 21.984V28.5397H84.8149V21.4394C84.8227 18.9643 83.5399 16.9718 80.7447 16.9718L80.737 16.9769ZM91.9152 21.7182L90.2427 21.3749C89.6052 21.2459 89.2104 20.9181 89.2104 20.3683C89.2104 19.7257 89.7859 19.2456 90.586 19.2456C91.7113 19.2456 92.1578 19.8263 92.2662 20.5051H94.8937C94.873 18.9565 93.6471 16.933 90.6325 16.933C88.2038 16.933 86.4177 18.6029 86.4177 20.6187C86.4177 22.2008 87.4011 23.5068 89.5769 23.974L91.1383 24.3172C92.0081 24.5005 92.3514 24.9135 92.3514 25.4167C92.3514 26.013 91.7991 26.5395 90.8028 26.5395C89.5872 26.5395 88.9264 25.8478 88.7716 25.0451H86.0616C86.2138 26.7305 87.4346 28.8753 90.826 28.8753C93.7813 28.8753 95.2705 26.9963 95.2705 25.1638C95.2679 23.5223 94.1452 22.1724 91.923 21.713L91.9152 21.7182ZM108.224 22.8874C108.224 26.2994 106.093 28.8236 102.91 28.8236C101.362 28.8236 100.205 28.2042 99.6556 27.448V32.9016H96.61V17.2712H99.5653V18.6675C100.081 17.7977 101.328 17.0182 103.024 17.0182C106.33 17.0182 108.232 19.5373 108.232 22.8822L108.224 22.8874ZM105.223 22.9106C105.223 20.9181 103.986 19.7489 102.428 19.7489C100.869 19.7489 99.6117 20.9181 99.6117 22.9106C99.6117 24.9031 100.871 26.093 102.428 26.093C103.984 26.093 105.243 24.9212 105.243 22.9054L105.223 22.9106ZM122.773 17.2763H125.729V28.5397H122.683V27.1692C122.167 28.0726 120.987 28.8159 119.429 28.8159C116.246 28.8159 114.114 26.2943 114.114 22.8796C114.114 19.5244 116.016 17.0156 119.315 17.0156C121.011 17.0156 122.237 17.8028 122.773 18.6649V17.2763ZM122.727 22.9106C122.727 20.9181 121.467 19.7489 119.911 19.7489C118.355 19.7489 117.116 20.9129 117.116 22.9054C117.116 24.898 118.352 26.0878 119.911 26.0878C121.47 26.0878 122.73 24.9005 122.73 22.9054L122.727 22.9106ZM109.652 28.5397H112.697V12.3002H109.652V28.5397ZM143.811 16.9743C142.735 16.9743 141.488 17.3383 140.763 18.2081V12.3002H137.717V28.5372H140.763V21.9195C140.833 20.6806 141.589 19.7205 142.872 19.7205C144.338 19.7205 144.957 20.709 144.954 21.9685V28.5423H148.003V21.4394C148 18.9643 146.673 16.9743 143.811 16.9743ZM132.971 21.713L131.311 21.3698C130.674 21.2407 130.279 20.9129 130.279 20.3632C130.279 19.7205 130.852 19.2404 131.655 19.2404C132.777 19.2404 133.224 19.8212 133.332 20.5H135.957C135.936 18.9514 134.711 16.9279 131.696 16.9279C129.267 16.9279 127.481 18.5978 127.481 20.6135C127.481 22.1957 128.467 23.5017 130.643 23.9688L132.191 24.3121C133.061 24.4953 133.405 24.9083 133.405 25.4116C133.405 26.0078 132.852 26.5343 131.856 26.5343C130.64 26.5343 129.98 25.8426 129.825 25.0399H127.117C127.267 26.7253 128.488 28.8701 131.879 28.8701C134.834 28.8701 136.324 26.9911 136.324 25.1586C136.324 23.5223 135.201 22.1724 132.981 21.713H132.971ZM45.4549 6H37.1054V12.2899H45.4549V6Z" fill="#2B2A35"/>
</svg>
