<svg width="24" height="28" viewBox="0 0 24 28" fill="none" xmlns="http://www.w3.org/2000/svg">
<path fill-rule="evenodd" clip-rule="evenodd" d="M23.0495 4.99046C23.5682 4.99046 24 5.42112 24 5.96912V6.47578C24 7.01044 23.5682 7.45444 23.0495 7.45444H0.951805C0.431813 7.45444 0 7.01044 0 6.47578V5.96912C0 5.42112 0.431813 4.99046 0.951805 4.99046H4.83942C5.62913 4.99046 6.3164 4.42913 6.49406 3.63714L6.69764 2.72782C7.01405 1.48916 8.05533 0.666504 9.24703 0.666504H14.753C15.9317 0.666504 16.9847 1.48916 17.2894 2.66248L17.5072 3.63581C17.6836 4.42913 18.3709 4.99046 19.1619 4.99046H23.0495ZM21.0744 23.5119C21.4803 19.7292 22.1909 10.7427 22.1909 10.652C22.2169 10.3773 22.1274 10.1173 21.9497 9.90801C21.7591 9.71201 21.5179 9.59601 21.2521 9.59601H2.75803C2.4909 9.59601 2.23674 9.71201 2.06038 9.90801C1.88144 10.1173 1.79326 10.3773 1.80622 10.652C1.80861 10.6687 1.83411 10.9852 1.87674 11.5144C2.06611 13.8654 2.59356 20.4134 2.93439 23.5119C3.17558 25.7945 4.67331 27.2292 6.84275 27.2812C8.51684 27.3198 10.2415 27.3332 12.0051 27.3332C13.6662 27.3332 15.3532 27.3198 17.0792 27.2812C19.3238 27.2425 20.8203 25.8332 21.0744 23.5119Z" fill="#5928E5"/>
</svg>
