<svg width="28" height="22" viewBox="0 0 28 22" fill="none" xmlns="http://www.w3.org/2000/svg">
<path fill-rule="evenodd" clip-rule="evenodd" d="M8.79707 11.0002C8.79707 13.8446 11.1255 16.1589 14.0003 16.1589C16.8621 16.1589 19.1906 13.8446 19.1906 11.0002C19.1906 8.14279 16.8621 5.82844 14.0003 5.82844C11.1255 5.82844 8.79707 8.14279 8.79707 11.0002ZM21.6491 3.06158C23.9255 4.81996 25.8637 7.39289 27.2556 10.6123C27.3597 10.8579 27.3597 11.1424 27.2556 11.3751C24.4719 17.8139 19.5158 21.6668 14.0003 21.6668H13.9873C8.48488 21.6668 3.52878 17.8139 0.745041 11.3751C0.640976 11.1424 0.640976 10.8579 0.745041 10.6123C3.52878 4.1735 8.48488 0.333496 13.9873 0.333496H14.0003C16.758 0.333496 19.3727 1.29026 21.6491 3.06158ZM14.0019 14.2167C15.784 14.2167 17.2409 12.7686 17.2409 10.9973C17.2409 9.21307 15.784 7.76499 14.0019 7.76499C13.8458 7.76499 13.6897 7.77792 13.5466 7.80378C13.4946 9.226 12.3238 10.3638 10.8799 10.3638H10.8149C10.7759 10.5707 10.7499 10.7775 10.7499 10.9973C10.7499 12.7686 12.2068 14.2167 14.0019 14.2167Z" fill="#5928E5"/>
</svg>